<svg width="19" height="22" viewBox="0 0 19 22" fill="none" xmlns="http://www.w3.org/2000/svg">
<path d="M13.2051 21V17.319C13.2378 16.8654 13.1817 16.4095 13.0404 15.9814C12.8991 15.5534 12.6759 15.1631 12.3856 14.8364C15.1231 14.5035 18 13.3716 18 8.17826C17.9998 6.85027 17.5316 5.57321 16.6923 4.61139C17.0897 3.44954 17.0616 2.16532 16.6138 1.02548C16.6138 1.02548 15.5851 0.692576 13.2051 2.43321C11.207 1.84237 9.10071 1.84237 7.10256 2.43321C4.72256 0.692576 3.69385 1.02548 3.69385 1.02548C3.24607 2.16532 3.21797 3.44954 3.61538 4.61139C2.76985 5.58034 2.30117 6.86895 2.30769 8.2068C2.30769 13.3621 5.18461 14.494 7.92205 14.865C7.63523 15.1883 7.41402 15.574 7.27283 15.9968C7.13164 16.4196 7.07363 16.8701 7.10256 17.319V21M7.10256 18.1465C2.74359 19.5732 2.74359 15.7686 1 15.293L7.10256 18.1465Z" stroke="white" stroke-width="2" stroke-linecap="round" stroke-linejoin="round"/>
</svg>
